<svg xmlns="http://www.w3.org/2000/svg" width="4800" height="2800" viewBox="0 0 4800 2800" role="img" aria-label="Exam Experts marketing t-shirt redesign concept">
  <defs>
    <style>
      .label { font: 700 60px 'Inter', 'Arial', sans-serif; fill: #9eb4d4; letter-spacing: 2px; }
      .title { font: 900 180px 'Inter', 'Arial', sans-serif; fill: #ffffff; letter-spacing: 2px; }
      .headline { font: 900 132px 'Inter', 'Arial', sans-serif; fill: #ffffff; letter-spacing: 1px; }
      .subline { font: 700 70px 'Inter', 'Arial', sans-serif; fill: #ffffff; }
      .back-title { font: 900 170px 'Inter', 'Arial', sans-serif; fill: #ffffff; letter-spacing: 2px; }
      .bullet { font: 800 74px 'Inter', 'Arial', sans-serif; fill: #ffffff; }
      .accent { fill: #6c63ff; }
      .cta { font: 900 88px 'Inter', 'Arial', sans-serif; fill: #6c63ff; letter-spacing: 1px; }
      .small { font: 700 50px 'Inter', 'Arial', sans-serif; fill: #ffffff; }
      .stroke { stroke: #ffffff; stroke-opacity: 0.2; stroke-width: 6; }
    </style>
    <filter id="shadow" x="-20%" y="-20%" width="140%" height="140%">
      <feDropShadow dx="0" dy="16" stdDeviation="18" flood-opacity="0.35"/>
    </filter>
  </defs>

  <rect width="4800" height="2800" fill="#050811"/>

  <text x="340" y="280" class="label">FRONT (CLEAN + BOLD)</text>
  <text x="2740" y="280" class="label">BACK (CONVERSION-FOCUSED)</text>

  <!-- Shirt mockups -->
  <rect x="210" y="360" width="2000" height="2240" rx="85" fill="#0b1730" filter="url(#shadow)"/>
  <rect x="2590" y="360" width="2000" height="2240" rx="85" fill="#0b1730" filter="url(#shadow)"/>
  <line x1="2400" y1="260" x2="2400" y2="2650" class="stroke"/>

  <!-- Front design -->
  <image x="1020" y="740" width="380" height="380" href="Logo.svg.svg" preserveAspectRatio="xMidYMid meet"/>
  <text x="1210" y="1260" text-anchor="middle" class="title">EXAM EXPERTS</text>
  <text x="1210" y="1470" text-anchor="middle" class="headline">Pass Smarter. Score Higher.</text>
  <text x="1210" y="1605" text-anchor="middle" class="subline">Expert prep built for exam-day confidence</text>

  <!-- Back design -->
  <text x="3590" y="930" text-anchor="middle" class="back-title">ACE YOUR NEXT EXAM FAST</text>

  <g transform="translate(2960, 1140)">
    <circle cx="0" cy="0" r="26" class="accent"/>
    <path d="M-10 0 L-1 10 L13 -10" fill="none" stroke="#ffffff" stroke-width="8" stroke-linecap="round" stroke-linejoin="round"/>
    <text x="90" y="22" class="bullet">Real exam-style questions</text>
  </g>
  <g transform="translate(2960, 1300)">
    <circle cx="0" cy="0" r="26" class="accent"/>
    <path d="M-10 0 L-1 10 L13 -10" fill="none" stroke="#ffffff" stroke-width="8" stroke-linecap="round" stroke-linejoin="round"/>
    <text x="90" y="22" class="bullet">Step-by-step explanations</text>
  </g>
  <g transform="translate(2960, 1460)">
    <circle cx="0" cy="0" r="26" class="accent"/>
    <path d="M-10 0 L-1 10 L13 -10" fill="none" stroke="#ffffff" stroke-width="8" stroke-linecap="round" stroke-linejoin="round"/>
    <text x="90" y="22" class="bullet">Personalized study plans</text>
  </g>

  <!-- Placeholder QR block for print layout mockup. -->
  <!-- Production replacement: SVG QR encoding https://examexperts.org; current 560x560 block is mockup-only, scale to >=1024x1024 px for print with error correction H. -->
  <g transform="translate(3250, 1660)" role="presentation" aria-hidden="true">
    <rect x="0" y="0" width="560" height="560" fill="#ffffff" rx="20"/>
    <rect x="34" y="34" width="140" height="140" fill="#050811"/>
    <rect x="62" y="62" width="84" height="84" fill="#ffffff"/>
    <rect x="386" y="34" width="140" height="140" fill="#050811"/>
    <rect x="414" y="62" width="84" height="84" fill="#ffffff"/>
    <rect x="34" y="386" width="140" height="140" fill="#050811"/>
    <rect x="62" y="414" width="84" height="84" fill="#ffffff"/>
    <rect x="216" y="210" width="44" height="44" fill="#050811"/>
    <rect x="272" y="210" width="44" height="44" fill="#050811"/>
    <rect x="328" y="210" width="44" height="44" fill="#050811"/>
    <rect x="216" y="266" width="44" height="44" fill="#050811"/>
    <rect x="328" y="266" width="44" height="44" fill="#050811"/>
    <rect x="216" y="322" width="44" height="44" fill="#050811"/>
    <rect x="272" y="322" width="44" height="44" fill="#050811"/>
    <rect x="328" y="322" width="44" height="44" fill="#050811"/>
    <rect x="432" y="234" width="44" height="44" fill="#050811"/>
    <rect x="488" y="234" width="44" height="44" fill="#050811"/>
    <rect x="432" y="290" width="44" height="44" fill="#050811"/>
    <rect x="488" y="346" width="44" height="44" fill="#050811"/>
    <rect x="216" y="434" width="44" height="44" fill="#050811"/>
    <rect x="272" y="434" width="44" height="44" fill="#050811"/>
    <rect x="328" y="490" width="44" height="44" fill="#050811"/>
  </g>

  <text x="3530" y="2315" text-anchor="middle" class="cta">Scan for a free practice test</text>
  <text x="3530" y="2420" text-anchor="middle" class="small">examexperts.org (281) 541-5928</text>
</svg>
