<svg xmlns="http://www.w3.org/2000/svg" width="4800" height="2800" viewBox="0 0 4800 2800" role="img" aria-label="Exam Experts marketing t-shirt redesign concept">
  <defs>
    <style>
      .label { font: 700 60px 'Inter', 'Arial', sans-serif; fill: #9eb4d4; letter-spacing: 2px; }
      .title { font: 900 180px 'Inter', 'Arial', sans-serif; fill: #ffffff; letter-spacing: 2px; }
      .headline { font: 900 132px 'Inter', 'Arial', sans-serif; fill: #ffffff; letter-spacing: 1px; }
      .subline { font: 700 70px 'Inter', 'Arial', sans-serif; fill: #ffffff; }
      .back-title { font: 900 120px 'Inter', 'Arial', sans-serif; fill: #ffffff; letter-spacing: 2px; }
      .bullet { font: 800 74px 'Inter', 'Arial', sans-serif; fill: #ffffff; }
      .accent { fill: #6c63ff; }
      .cta { font: 900 88px 'Inter', 'Arial', sans-serif; fill: #6c63ff; letter-spacing: 1px; }
      .small { font: 700 50px 'Inter', 'Arial', sans-serif; fill: #ffffff; }
      .stroke { stroke: #ffffff; stroke-opacity: 0.2; stroke-width: 6; }
    </style>
    <filter id="shadow" x="-20%" y="-20%" width="140%" height="140%">
      <feDropShadow dx="0" dy="16" stdDeviation="18" flood-opacity="0.35"/>
    </filter>
  </defs>

  <rect width="4800" height="2800" fill="#050811"/>

  <text x="340" y="280" class="label">FRONT (CLEAN + BOLD)</text>
  <text x="2740" y="280" class="label">BACK (CONVERSION-FOCUSED)</text>

  <!-- Shirt mockups -->
  <rect x="210" y="360" width="2000" height="2240" rx="85" fill="#0b1730" filter="url(#shadow)"/>
  <rect x="2590" y="360" width="2000" height="2240" rx="85" fill="#0b1730" filter="url(#shadow)"/>
  <line x1="2400" y1="260" x2="2400" y2="2650" class="stroke"/>

  <!-- Front design -->
  <image x="860" y="660" width="700" height="700" href="Logo.svg.svg" preserveAspectRatio="xMidYMid meet"/>
  <text x="1210" y="1540" text-anchor="middle" class="headline">Pass Smarter. Score Higher.</text>
  <text x="1210" y="1675" text-anchor="middle" class="subline">Expert prep built for exam-day confidence</text>

  <!-- Back design -->
  <text x="3590" y="930" text-anchor="middle" class="back-title">ACE YOUR NEXT EXAM FAST</text>

  <g transform="translate(2960, 1140)">
    <circle cx="0" cy="0" r="26" class="accent"/>
    <path d="M-10 0 L-1 10 L13 -10" fill="none" stroke="#ffffff" stroke-width="8" stroke-linecap="round" stroke-linejoin="round"/>
    <text x="90" y="22" class="bullet">Real exam-style questions</text>
  </g>
  <g transform="translate(2960, 1300)">
    <circle cx="0" cy="0" r="26" class="accent"/>
    <path d="M-10 0 L-1 10 L13 -10" fill="none" stroke="#ffffff" stroke-width="8" stroke-linecap="round" stroke-linejoin="round"/>
    <text x="90" y="22" class="bullet">Step-by-step explanations</text>
  </g>
  <g transform="translate(2960, 1460)">
    <circle cx="0" cy="0" r="26" class="accent"/>
    <path d="M-10 0 L-1 10 L13 -10" fill="none" stroke="#ffffff" stroke-width="8" stroke-linecap="round" stroke-linejoin="round"/>
    <text x="90" y="22" class="bullet">Personalized study plans</text>
  </g>

  <!-- QR code linking to https://examexperts.org/ -->
  <g transform="translate(3250, 1660)" role="img" aria-label="QR code to the Exam Experts home page">
    <rect x="0" y="0" width="560" height="560" fill="#ffffff" rx="20"/>
    <g transform="translate(20, 20) scale(15.757575758)">
      <path fill="#fff" d="M0 0h33v33h-33z"/>
      <path class="qrline" stroke="#050811" d="M2 2.5h7m2 0h1m1 0h1m1 0h1m1 0h1m1 0h2m1 0h1m1 0h7m-29 1h1m5 0h1m4 0h1m2 0h3m1 0h2m2 0h1m5 0h1m-29 1h1m1 0h3m1 0h1m1 0h2m1 0h2m3 0h1m3 0h1m1 0h1m1 0h3m1 0h1m-29 1h1m1 0h3m1 0h1m1 0h2m4 0h2m1 0h1m2 0h1m1 0h1m1 0h3m1 0h1m-29 1h1m1 0h3m1 0h1m2 0h1m1 0h1m1 0h1m2 0h1m1 0h2m2 0h1m1 0h3m1 0h1m-29 1h1m5 0h1m3 0h1m1 0h2m2 0h1m5 0h1m5 0h1m-29 1h7m1 0h1m1 0h1m1 0h1m1 0h1m1 0h1m1 0h1m1 0h1m1 0h7m-20 1h1m1 0h2m6 0h2m-18 1h2m1 0h2m1 0h2m1 0h1m1 0h2m2 0h1m6 0h2m-27 1h2m3 0h1m1 0h8m3 0h2m1 0h1m1 0h2m2 0h1m-28 1h2m1 0h4m1 0h2m2 0h4m1 0h2m1 0h5m1 0h1m-26 1h2m1 0h2m5 0h5m2 0h2m4 0h2m2 0h1m-29 1h2m1 0h7m1 0h3m1 0h1m1 0h3m1 0h2m4 0h1m-28 1h3m5 0h1m1 0h1m1 0h1m3 0h2m4 0h1m1 0h1m1 0h3m-27 1h5m2 0h3m1 0h1m4 0h6m1 0h1m2 0h1m-29 1h1m2 0h2m2 0h6m4 0h2m2 0h1m2 0h5m-26 1h2m1 0h1m1 0h7m1 0h3m2 0h1m3 0h1m-26 1h5m3 0h2m1 0h3m2 0h5m3 0h1m-25 1h2m1 0h1m2 0h3m1 0h1m1 0h1m1 0h1m1 0h1m1 0h2m3 0h1m1 0h2m1 0h1m-29 1h2m1 0h2m2 0h2m1 0h1m1 0h1m2 0h1m5 0h2m1 0h1m1 0h1m-27 1h8m1 0h3m2 0h2m4 0h8m-20 1h3m2 0h3m2 0h1m1 0h1m3 0h3m-27 1h7m1 0h2m2 0h1m2 0h1m1 0h1m1 0h2m1 0h1m1 0h1m1 0h1m-27 1h1m5 0h1m3 0h1m1 0h2m1 0h3m1 0h2m3 0h2m1 0h2m-29 1h1m1 0h3m1 0h1m1 0h2m1 0h3m1 0h2m1 0h7m-25 1h1m1 0h3m1 0h1m1 0h1m1 0h2m1 0h1m2 0h2m5 0h1m2 0h2m-28 1h1m1 0h3m1 0h1m3 0h1m1 0h1m2 0h4m1 0h2m1 0h2m2 0h2m-29 1h1m5 0h1m2 0h1m4 0h2m1 0h1m3 0h1m2 0h3m1 0h1m-29 1h7m4 0h2m2 0h1m1 0h1m1 0h7"/>
    </g>
  </g>

  <text x="3530" y="2420" text-anchor="middle" class="small">examexperts.org (281) 541-5928</text>
</svg>
