<svg xmlns="http://www.w3.org/2000/svg" width="4800" height="2800" viewBox="0 0 4800 2800" role="img" aria-label="Exam Experts marketing t-shirt redesign concept">
  <defs>
    <style>
      .label { font: 700 60px 'Inter', 'Arial', sans-serif; fill: #9eb4d4; letter-spacing: 2px; }
      .title { font: 900 180px 'Inter', 'Arial', sans-serif; fill: #ffffff; letter-spacing: 2px; }
      .headline { font: 900 132px 'Inter', 'Arial', sans-serif; fill: #ffffff; letter-spacing: 1px; }
      .subline { font: 700 70px 'Inter', 'Arial', sans-serif; fill: #ffffff; }
      .back-title { font: 900 170px 'Inter', 'Arial', sans-serif; fill: #ffffff; letter-spacing: 2px; }
      .bullet { font: 800 74px 'Inter', 'Arial', sans-serif; fill: #ffffff; }
      .accent { fill: #6c63ff; }
      .cta { font: 900 88px 'Inter', 'Arial', sans-serif; fill: #6c63ff; letter-spacing: 1px; }
      .small { font: 700 50px 'Inter', 'Arial', sans-serif; fill: #ffffff; }
      .stroke { stroke: #ffffff; stroke-opacity: 0.2; stroke-width: 6; }
    </style>
    <filter id="shadow" x="-20%" y="-20%" width="140%" height="140%">
      <feDropShadow dx="0" dy="16" stdDeviation="18" flood-opacity="0.35"/>
    </filter>
  </defs>

  <rect width="4800" height="2800" fill="#050811"/>

  <text x="340" y="280" class="label">FRONT (CLEAN + BOLD)</text>
  <text x="2740" y="280" class="label">BACK (CONVERSION-FOCUSED)</text>

  <!-- Shirt mockups -->
  <rect x="210" y="360" width="2000" height="2240" rx="85" fill="#0b1730" filter="url(#shadow)"/>
  <rect x="2590" y="360" width="2000" height="2240" rx="85" fill="#0b1730" filter="url(#shadow)"/>
  <line x1="2400" y1="260" x2="2400" y2="2650" class="stroke"/>

  <!-- Front design -->
  <g transform="translate(1210, 1060)">
    <circle cx="0" cy="-220" r="170" fill="none" stroke="#ffffff" stroke-width="16"/>
    <path d="M-80 -235 L80 -235 L0 -330 Z" fill="#ffffff"/>
    <rect x="-52" y="-232" width="104" height="34" rx="8" fill="#ffffff"/>
    <rect x="-10" y="-198" width="20" height="70" rx="7" fill="#ffffff"/>
    <circle cx="0" cy="-106" r="14" fill="#ffffff"/>
  </g>
  <text x="1210" y="1260" text-anchor="middle" class="title">EXAM EXPERTS</text>
  <text x="1210" y="1470" text-anchor="middle" class="headline">Pass Smarter.</text>
  <text x="1210" y="1605" text-anchor="middle" class="subline">Prep with Exam Experts</text>

  <!-- Back design -->
  <text x="3590" y="930" text-anchor="middle" class="back-title">ACE YOUR NEXT EXAM</text>

  <g transform="translate(2960, 1140)">
    <circle cx="0" cy="0" r="26" class="accent"/>
    <path d="M-10 0 L-1 10 L13 -10" fill="none" stroke="#ffffff" stroke-width="8" stroke-linecap="round" stroke-linejoin="round"/>
    <text x="90" y="22" class="bullet">Practice tests</text>
  </g>
  <g transform="translate(2960, 1300)">
    <circle cx="0" cy="0" r="26" class="accent"/>
    <path d="M-10 0 L-1 10 L13 -10" fill="none" stroke="#ffffff" stroke-width="8" stroke-linecap="round" stroke-linejoin="round"/>
    <text x="90" y="22" class="bullet">Expert explanations</text>
  </g>
  <g transform="translate(2960, 1460)">
    <circle cx="0" cy="0" r="26" class="accent"/>
    <path d="M-10 0 L-1 10 L13 -10" fill="none" stroke="#ffffff" stroke-width="8" stroke-linecap="round" stroke-linejoin="round"/>
    <text x="90" y="22" class="bullet">Proven study plans</text>
  </g>

  <!-- Placeholder QR block for print mockup; replace with production QR (e.g., generated via qrcode library) linking to signup landing page -->
  <g transform="translate(3250, 1660)" role="img" aria-label="Placeholder QR code for Exam Experts signup link">
    <rect x="0" y="0" width="560" height="560" fill="#ffffff" rx="20"/>
    <rect x="34" y="34" width="140" height="140" fill="#050811"/>
    <rect x="62" y="62" width="84" height="84" fill="#ffffff"/>
    <rect x="386" y="34" width="140" height="140" fill="#050811"/>
    <rect x="414" y="62" width="84" height="84" fill="#ffffff"/>
    <rect x="34" y="386" width="140" height="140" fill="#050811"/>
    <rect x="62" y="414" width="84" height="84" fill="#ffffff"/>
    <rect x="216" y="210" width="44" height="44" fill="#050811"/>
    <rect x="272" y="210" width="44" height="44" fill="#050811"/>
    <rect x="328" y="210" width="44" height="44" fill="#050811"/>
    <rect x="216" y="266" width="44" height="44" fill="#050811"/>
    <rect x="328" y="266" width="44" height="44" fill="#050811"/>
    <rect x="216" y="322" width="44" height="44" fill="#050811"/>
    <rect x="272" y="322" width="44" height="44" fill="#050811"/>
    <rect x="328" y="322" width="44" height="44" fill="#050811"/>
    <rect x="432" y="234" width="44" height="44" fill="#050811"/>
    <rect x="488" y="234" width="44" height="44" fill="#050811"/>
    <rect x="432" y="290" width="44" height="44" fill="#050811"/>
    <rect x="488" y="346" width="44" height="44" fill="#050811"/>
    <rect x="216" y="434" width="44" height="44" fill="#050811"/>
    <rect x="272" y="434" width="44" height="44" fill="#050811"/>
    <rect x="328" y="490" width="44" height="44" fill="#050811"/>
  </g>

  <text x="3530" y="2315" text-anchor="middle" class="cta">Scan to start free</text>
  <text x="3530" y="2420" text-anchor="middle" class="small">examexperts.org • @examexperts</text>
</svg>
