<svg xmlns="http://www.w3.org/2000/svg" width="4800" height="2800" viewBox="0 0 4800 2800" role="img" aria-label="Exam Experts marketing t-shirt redesign concept">
  <defs>
    <style>
      .label { font: 700 60px 'Inter', 'Arial', sans-serif; fill: #9eb4d4; letter-spacing: 2px; }
      .title { font: 900 180px 'Inter', 'Arial', sans-serif; fill: #ffffff; letter-spacing: 2px; }
      .headline { font: 900 132px 'Inter', 'Arial', sans-serif; fill: #ffffff; letter-spacing: 1px; }
      .subline { font: 700 70px 'Inter', 'Arial', sans-serif; fill: #ffffff; }
      .back-title { font: 900 120px 'Inter', 'Arial', sans-serif; fill: #ffffff; letter-spacing: 2px; }
      .bullet { font: 800 74px 'Inter', 'Arial', sans-serif; fill: #ffffff; }
      .accent { fill: #6c63ff; }
      .cta { font: 900 88px 'Inter', 'Arial', sans-serif; fill: #6c63ff; letter-spacing: 1px; }
      .small { font: 700 50px 'Inter', 'Arial', sans-serif; fill: #ffffff; }
      .stroke { stroke: #ffffff; stroke-opacity: 0.2; stroke-width: 6; }
    </style>
    <filter id="shadow" x="-20%" y="-20%" width="140%" height="140%">
      <feDropShadow dx="0" dy="16" stdDeviation="18" flood-opacity="0.35"/>
    </filter>
  </defs>

  <rect width="4800" height="2800" fill="#050811"/>

  <text x="340" y="280" class="label">FRONT (CLEAN + BOLD)</text>
  <text x="2740" y="280" class="label">BACK (CONVERSION-FOCUSED)</text>

  <!-- Shirt mockups -->
  <rect x="210" y="360" width="2000" height="2240" rx="85" fill="#0b1730" filter="url(#shadow)"/>
  <rect x="2590" y="360" width="2000" height="2240" rx="85" fill="#0b1730" filter="url(#shadow)"/>
  <line x1="2400" y1="260" x2="2400" y2="2650" class="stroke"/>

  <!-- Front design -->
  <image x="860" y="660" width="700" height="700" href="Logo.svg.svg" preserveAspectRatio="xMidYMid meet"/>
  <text x="1210" y="1480" text-anchor="middle" class="headline">Pass Smarter. Score Higher.</text>
  <text x="1210" y="1615" text-anchor="middle" class="subline">Expert prep built for exam-day confidence</text>

  <!-- Back design -->
  <text x="3590" y="930" text-anchor="middle" class="back-title">ACE YOUR NEXT EXAM FAST</text>

  <g transform="translate(2960, 1140)">
    <circle cx="0" cy="0" r="26" class="accent"/>
    <path d="M-10 0 L-1 10 L13 -10" fill="none" stroke="#ffffff" stroke-width="8" stroke-linecap="round" stroke-linejoin="round"/>
    <text x="90" y="22" class="bullet">Real exam-style questions</text>
  </g>
  <g transform="translate(2960, 1300)">
    <circle cx="0" cy="0" r="26" class="accent"/>
    <path d="M-10 0 L-1 10 L13 -10" fill="none" stroke="#ffffff" stroke-width="8" stroke-linecap="round" stroke-linejoin="round"/>
    <text x="90" y="22" class="bullet">Step-by-step explanations</text>
  </g>
  <g transform="translate(2960, 1460)">
    <circle cx="0" cy="0" r="26" class="accent"/>
    <path d="M-10 0 L-1 10 L13 -10" fill="none" stroke="#ffffff" stroke-width="8" stroke-linecap="round" stroke-linejoin="round"/>
    <text x="90" y="22" class="bullet">Personalized study plans</text>
  </g>

  <!-- QR code linking to https://calendly.com/examexpertscontact -->
  <g transform="translate(3250, 1660)" role="img" aria-label="QR code to book on Calendly">
    <rect x="0" y="0" width="560" height="560" fill="#ffffff" rx="20"/>
    <g fill="#050811">
      <rect x="0.0" y="0.0" width="15.14" height="15.14"/>
      <rect x="15.14" y="0.0" width="15.14" height="15.14"/>
      <rect x="30.27" y="0.0" width="15.14" height="15.14"/>
      <rect x="45.41" y="0.0" width="15.14" height="15.14"/>
      <rect x="60.54" y="0.0" width="15.14" height="15.14"/>
      <rect x="75.68" y="0.0" width="15.14" height="15.14"/>
      <rect x="90.81" y="0.0" width="15.14" height="15.14"/>
      <rect x="121.08" y="0.0" width="15.14" height="15.14"/>
      <rect x="151.35" y="0.0" width="15.14" height="15.14"/>
      <rect x="166.49" y="0.0" width="15.14" height="15.14"/>
      <rect x="181.62" y="0.0" width="15.14" height="15.14"/>
      <rect x="211.89" y="0.0" width="15.14" height="15.14"/>
      <rect x="287.57" y="0.0" width="15.14" height="15.14"/>
      <rect x="378.38" y="0.0" width="15.14" height="15.14"/>
      <rect x="393.51" y="0.0" width="15.14" height="15.14"/>
      <rect x="454.05" y="0.0" width="15.14" height="15.14"/>
      <rect x="469.19" y="0.0" width="15.14" height="15.14"/>
      <rect x="484.32" y="0.0" width="15.14" height="15.14"/>
      <rect x="499.46" y="0.0" width="15.14" height="15.14"/>
      <rect x="514.59" y="0.0" width="15.14" height="15.14"/>
      <rect x="529.73" y="0.0" width="15.14" height="15.14"/>
      <rect x="544.86" y="0.0" width="15.14" height="15.14"/>
      <rect x="0.0" y="15.14" width="15.14" height="15.14"/>
      <rect x="90.81" y="15.14" width="15.14" height="15.14"/>
      <rect x="136.22" y="15.14" width="15.14" height="15.14"/>
      <rect x="211.89" y="15.14" width="15.14" height="15.14"/>
      <rect x="227.03" y="15.14" width="15.14" height="15.14"/>
      <rect x="272.43" y="15.14" width="15.14" height="15.14"/>
      <rect x="287.57" y="15.14" width="15.14" height="15.14"/>
      <rect x="317.84" y="15.14" width="15.14" height="15.14"/>
      <rect x="332.97" y="15.14" width="15.14" height="15.14"/>
      <rect x="348.11" y="15.14" width="15.14" height="15.14"/>
      <rect x="393.51" y="15.14" width="15.14" height="15.14"/>
      <rect x="423.78" y="15.14" width="15.14" height="15.14"/>
      <rect x="454.05" y="15.14" width="15.14" height="15.14"/>
      <rect x="544.86" y="15.14" width="15.14" height="15.14"/>
      <rect x="0.0" y="30.27" width="15.14" height="15.14"/>
      <rect x="30.27" y="30.27" width="15.14" height="15.14"/>
      <rect x="45.41" y="30.27" width="15.14" height="15.14"/>
      <rect x="60.54" y="30.27" width="15.14" height="15.14"/>
      <rect x="90.81" y="30.27" width="15.14" height="15.14"/>
      <rect x="121.08" y="30.27" width="15.14" height="15.14"/>
      <rect x="136.22" y="30.27" width="15.14" height="15.14"/>
      <rect x="151.35" y="30.27" width="15.14" height="15.14"/>
      <rect x="166.49" y="30.27" width="15.14" height="15.14"/>
      <rect x="181.62" y="30.27" width="15.14" height="15.14"/>
      <rect x="196.76" y="30.27" width="15.14" height="15.14"/>
      <rect x="211.89" y="30.27" width="15.14" height="15.14"/>
      <rect x="227.03" y="30.27" width="15.14" height="15.14"/>
      <rect x="242.16" y="30.27" width="15.14" height="15.14"/>
      <rect x="257.3" y="30.27" width="15.14" height="15.14"/>
      <rect x="272.43" y="30.27" width="15.14" height="15.14"/>
      <rect x="302.7" y="30.27" width="15.14" height="15.14"/>
      <rect x="332.97" y="30.27" width="15.14" height="15.14"/>
      <rect x="348.11" y="30.27" width="15.14" height="15.14"/>
      <rect x="363.24" y="30.27" width="15.14" height="15.14"/>
      <rect x="393.51" y="30.27" width="15.14" height="15.14"/>
      <rect x="454.05" y="30.27" width="15.14" height="15.14"/>
      <rect x="484.32" y="30.27" width="15.14" height="15.14"/>
      <rect x="499.46" y="30.27" width="15.14" height="15.14"/>
      <rect x="514.59" y="30.27" width="15.14" height="15.14"/>
      <rect x="544.86" y="30.27" width="15.14" height="15.14"/>
      <rect x="0.0" y="45.41" width="15.14" height="15.14"/>
      <rect x="30.27" y="45.41" width="15.14" height="15.14"/>
      <rect x="45.41" y="45.41" width="15.14" height="15.14"/>
      <rect x="60.54" y="45.41" width="15.14" height="15.14"/>
      <rect x="90.81" y="45.41" width="15.14" height="15.14"/>
      <rect x="136.22" y="45.41" width="15.14" height="15.14"/>
      <rect x="166.49" y="45.41" width="15.14" height="15.14"/>
      <rect x="196.76" y="45.41" width="15.14" height="15.14"/>
      <rect x="211.89" y="45.41" width="15.14" height="15.14"/>
      <rect x="287.57" y="45.41" width="15.14" height="15.14"/>
      <rect x="302.7" y="45.41" width="15.14" height="15.14"/>
      <rect x="332.97" y="45.41" width="15.14" height="15.14"/>
      <rect x="363.24" y="45.41" width="15.14" height="15.14"/>
      <rect x="378.38" y="45.41" width="15.14" height="15.14"/>
      <rect x="423.78" y="45.41" width="15.14" height="15.14"/>
      <rect x="454.05" y="45.41" width="15.14" height="15.14"/>
      <rect x="484.32" y="45.41" width="15.14" height="15.14"/>
      <rect x="499.46" y="45.41" width="15.14" height="15.14"/>
      <rect x="514.59" y="45.41" width="15.14" height="15.14"/>
      <rect x="544.86" y="45.41" width="15.14" height="15.14"/>
      <rect x="0.0" y="60.54" width="15.14" height="15.14"/>
      <rect x="30.27" y="60.54" width="15.14" height="15.14"/>
      <rect x="45.41" y="60.54" width="15.14" height="15.14"/>
      <rect x="60.54" y="60.54" width="15.14" height="15.14"/>
      <rect x="90.81" y="60.54" width="15.14" height="15.14"/>
      <rect x="121.08" y="60.54" width="15.14" height="15.14"/>
      <rect x="136.22" y="60.54" width="15.14" height="15.14"/>
      <rect x="151.35" y="60.54" width="15.14" height="15.14"/>
      <rect x="196.76" y="60.54" width="15.14" height="15.14"/>
      <rect x="211.89" y="60.54" width="15.14" height="15.14"/>
      <rect x="227.03" y="60.54" width="15.14" height="15.14"/>
      <rect x="242.16" y="60.54" width="15.14" height="15.14"/>
      <rect x="257.3" y="60.54" width="15.14" height="15.14"/>
      <rect x="272.43" y="60.54" width="15.14" height="15.14"/>
      <rect x="317.84" y="60.54" width="15.14" height="15.14"/>
      <rect x="332.97" y="60.54" width="15.14" height="15.14"/>
      <rect x="348.11" y="60.54" width="15.14" height="15.14"/>
      <rect x="363.24" y="60.54" width="15.14" height="15.14"/>
      <rect x="393.51" y="60.54" width="15.14" height="15.14"/>
      <rect x="454.05" y="60.54" width="15.14" height="15.14"/>
      <rect x="484.32" y="60.54" width="15.14" height="15.14"/>
      <rect x="499.46" y="60.54" width="15.14" height="15.14"/>
      <rect x="514.59" y="60.54" width="15.14" height="15.14"/>
      <rect x="544.86" y="60.54" width="15.14" height="15.14"/>
      <rect x="0.0" y="75.68" width="15.14" height="15.14"/>
      <rect x="90.81" y="75.68" width="15.14" height="15.14"/>
      <rect x="166.49" y="75.68" width="15.14" height="15.14"/>
      <rect x="181.62" y="75.68" width="15.14" height="15.14"/>
      <rect x="227.03" y="75.68" width="15.14" height="15.14"/>
      <rect x="257.3" y="75.68" width="15.14" height="15.14"/>
      <rect x="287.57" y="75.68" width="15.14" height="15.14"/>
      <rect x="302.7" y="75.68" width="15.14" height="15.14"/>
      <rect x="332.97" y="75.68" width="15.14" height="15.14"/>
      <rect x="348.11" y="75.68" width="15.14" height="15.14"/>
      <rect x="423.78" y="75.68" width="15.14" height="15.14"/>
      <rect x="454.05" y="75.68" width="15.14" height="15.14"/>
      <rect x="544.86" y="75.68" width="15.14" height="15.14"/>
      <rect x="0.0" y="90.81" width="15.14" height="15.14"/>
      <rect x="15.14" y="90.81" width="15.14" height="15.14"/>
      <rect x="30.27" y="90.81" width="15.14" height="15.14"/>
      <rect x="45.41" y="90.81" width="15.14" height="15.14"/>
      <rect x="60.54" y="90.81" width="15.14" height="15.14"/>
      <rect x="75.68" y="90.81" width="15.14" height="15.14"/>
      <rect x="90.81" y="90.81" width="15.14" height="15.14"/>
      <rect x="121.08" y="90.81" width="15.14" height="15.14"/>
      <rect x="151.35" y="90.81" width="15.14" height="15.14"/>
      <rect x="181.62" y="90.81" width="15.14" height="15.14"/>
      <rect x="211.89" y="90.81" width="15.14" height="15.14"/>
      <rect x="242.16" y="90.81" width="15.14" height="15.14"/>
      <rect x="272.43" y="90.81" width="15.14" height="15.14"/>
      <rect x="302.7" y="90.81" width="15.14" height="15.14"/>
      <rect x="332.97" y="90.81" width="15.14" height="15.14"/>
      <rect x="363.24" y="90.81" width="15.14" height="15.14"/>
      <rect x="393.51" y="90.81" width="15.14" height="15.14"/>
      <rect x="423.78" y="90.81" width="15.14" height="15.14"/>
      <rect x="454.05" y="90.81" width="15.14" height="15.14"/>
      <rect x="469.19" y="90.81" width="15.14" height="15.14"/>
      <rect x="484.32" y="90.81" width="15.14" height="15.14"/>
      <rect x="499.46" y="90.81" width="15.14" height="15.14"/>
      <rect x="514.59" y="90.81" width="15.14" height="15.14"/>
      <rect x="529.73" y="90.81" width="15.14" height="15.14"/>
      <rect x="544.86" y="90.81" width="15.14" height="15.14"/>
      <rect x="121.08" y="105.95" width="15.14" height="15.14"/>
      <rect x="257.3" y="105.95" width="15.14" height="15.14"/>
      <rect x="287.57" y="105.95" width="15.14" height="15.14"/>
      <rect x="317.84" y="105.95" width="15.14" height="15.14"/>
      <rect x="363.24" y="105.95" width="15.14" height="15.14"/>
      <rect x="393.51" y="105.95" width="15.14" height="15.14"/>
      <rect x="408.65" y="105.95" width="15.14" height="15.14"/>
      <rect x="423.78" y="105.95" width="15.14" height="15.14"/>
      <rect x="75.68" y="121.08" width="15.14" height="15.14"/>
      <rect x="90.81" y="121.08" width="15.14" height="15.14"/>
      <rect x="151.35" y="121.08" width="15.14" height="15.14"/>
      <rect x="166.49" y="121.08" width="15.14" height="15.14"/>
      <rect x="196.76" y="121.08" width="15.14" height="15.14"/>
      <rect x="242.16" y="121.08" width="15.14" height="15.14"/>
      <rect x="257.3" y="121.08" width="15.14" height="15.14"/>
      <rect x="272.43" y="121.08" width="15.14" height="15.14"/>
      <rect x="287.57" y="121.08" width="15.14" height="15.14"/>
      <rect x="302.7" y="121.08" width="15.14" height="15.14"/>
      <rect x="317.84" y="121.08" width="15.14" height="15.14"/>
      <rect x="348.11" y="121.08" width="15.14" height="15.14"/>
      <rect x="363.24" y="121.08" width="15.14" height="15.14"/>
      <rect x="454.05" y="121.08" width="15.14" height="15.14"/>
      <rect x="484.32" y="121.08" width="15.14" height="15.14"/>
      <rect x="514.59" y="121.08" width="15.14" height="15.14"/>
      <rect x="544.86" y="121.08" width="15.14" height="15.14"/>
      <rect x="0.0" y="136.22" width="15.14" height="15.14"/>
      <rect x="30.27" y="136.22" width="15.14" height="15.14"/>
      <rect x="45.41" y="136.22" width="15.14" height="15.14"/>
      <rect x="60.54" y="136.22" width="15.14" height="15.14"/>
      <rect x="75.68" y="136.22" width="15.14" height="15.14"/>
      <rect x="136.22" y="136.22" width="15.14" height="15.14"/>
      <rect x="272.43" y="136.22" width="15.14" height="15.14"/>
      <rect x="287.57" y="136.22" width="15.14" height="15.14"/>
      <rect x="302.7" y="136.22" width="15.14" height="15.14"/>
      <rect x="317.84" y="136.22" width="15.14" height="15.14"/>
      <rect x="348.11" y="136.22" width="15.14" height="15.14"/>
      <rect x="363.24" y="136.22" width="15.14" height="15.14"/>
      <rect x="378.38" y="136.22" width="15.14" height="15.14"/>
      <rect x="469.19" y="136.22" width="15.14" height="15.14"/>
      <rect x="484.32" y="136.22" width="15.14" height="15.14"/>
      <rect x="499.46" y="136.22" width="15.14" height="15.14"/>
      <rect x="529.73" y="136.22" width="15.14" height="15.14"/>
      <rect x="0.0" y="151.35" width="15.14" height="15.14"/>
      <rect x="30.27" y="151.35" width="15.14" height="15.14"/>
      <rect x="45.41" y="151.35" width="15.14" height="15.14"/>
      <rect x="60.54" y="151.35" width="15.14" height="15.14"/>
      <rect x="90.81" y="151.35" width="15.14" height="15.14"/>
      <rect x="105.95" y="151.35" width="15.14" height="15.14"/>
      <rect x="136.22" y="151.35" width="15.14" height="15.14"/>
      <rect x="151.35" y="151.35" width="15.14" height="15.14"/>
      <rect x="181.62" y="151.35" width="15.14" height="15.14"/>
      <rect x="211.89" y="151.35" width="15.14" height="15.14"/>
      <rect x="242.16" y="151.35" width="15.14" height="15.14"/>
      <rect x="257.3" y="151.35" width="15.14" height="15.14"/>
      <rect x="287.57" y="151.35" width="15.14" height="15.14"/>
      <rect x="302.7" y="151.35" width="15.14" height="15.14"/>
      <rect x="317.84" y="151.35" width="15.14" height="15.14"/>
      <rect x="332.97" y="151.35" width="15.14" height="15.14"/>
      <rect x="348.11" y="151.35" width="15.14" height="15.14"/>
      <rect x="363.24" y="151.35" width="15.14" height="15.14"/>
      <rect x="378.38" y="151.35" width="15.14" height="15.14"/>
      <rect x="393.51" y="151.35" width="15.14" height="15.14"/>
      <rect x="454.05" y="151.35" width="15.14" height="15.14"/>
      <rect x="469.19" y="151.35" width="15.14" height="15.14"/>
      <rect x="514.59" y="151.35" width="15.14" height="15.14"/>
      <rect x="529.73" y="151.35" width="15.14" height="15.14"/>
      <rect x="544.86" y="151.35" width="15.14" height="15.14"/>
      <rect x="15.14" y="166.49" width="15.14" height="15.14"/>
      <rect x="60.54" y="166.49" width="15.14" height="15.14"/>
      <rect x="75.68" y="166.49" width="15.14" height="15.14"/>
      <rect x="121.08" y="166.49" width="15.14" height="15.14"/>
      <rect x="136.22" y="166.49" width="15.14" height="15.14"/>
      <rect x="151.35" y="166.49" width="15.14" height="15.14"/>
      <rect x="166.49" y="166.49" width="15.14" height="15.14"/>
      <rect x="181.62" y="166.49" width="15.14" height="15.14"/>
      <rect x="196.76" y="166.49" width="15.14" height="15.14"/>
      <rect x="211.89" y="166.49" width="15.14" height="15.14"/>
      <rect x="257.3" y="166.49" width="15.14" height="15.14"/>
      <rect x="272.43" y="166.49" width="15.14" height="15.14"/>
      <rect x="287.57" y="166.49" width="15.14" height="15.14"/>
      <rect x="302.7" y="166.49" width="15.14" height="15.14"/>
      <rect x="332.97" y="166.49" width="15.14" height="15.14"/>
      <rect x="348.11" y="166.49" width="15.14" height="15.14"/>
      <rect x="363.24" y="166.49" width="15.14" height="15.14"/>
      <rect x="393.51" y="166.49" width="15.14" height="15.14"/>
      <rect x="408.65" y="166.49" width="15.14" height="15.14"/>
      <rect x="423.78" y="166.49" width="15.14" height="15.14"/>
      <rect x="454.05" y="166.49" width="15.14" height="15.14"/>
      <rect x="499.46" y="166.49" width="15.14" height="15.14"/>
      <rect x="529.73" y="166.49" width="15.14" height="15.14"/>
      <rect x="544.86" y="166.49" width="15.14" height="15.14"/>
      <rect x="90.81" y="181.62" width="15.14" height="15.14"/>
      <rect x="105.95" y="181.62" width="15.14" height="15.14"/>
      <rect x="136.22" y="181.62" width="15.14" height="15.14"/>
      <rect x="196.76" y="181.62" width="15.14" height="15.14"/>
      <rect x="211.89" y="181.62" width="15.14" height="15.14"/>
      <rect x="242.16" y="181.62" width="15.14" height="15.14"/>
      <rect x="272.43" y="181.62" width="15.14" height="15.14"/>
      <rect x="287.57" y="181.62" width="15.14" height="15.14"/>
      <rect x="302.7" y="181.62" width="15.14" height="15.14"/>
      <rect x="423.78" y="181.62" width="15.14" height="15.14"/>
      <rect x="454.05" y="181.62" width="15.14" height="15.14"/>
      <rect x="469.19" y="181.62" width="15.14" height="15.14"/>
      <rect x="499.46" y="181.62" width="15.14" height="15.14"/>
      <rect x="544.86" y="181.62" width="15.14" height="15.14"/>
      <rect x="45.41" y="196.76" width="15.14" height="15.14"/>
      <rect x="75.68" y="196.76" width="15.14" height="15.14"/>
      <rect x="151.35" y="196.76" width="15.14" height="15.14"/>
      <rect x="166.49" y="196.76" width="15.14" height="15.14"/>
      <rect x="227.03" y="196.76" width="15.14" height="15.14"/>
      <rect x="272.43" y="196.76" width="15.14" height="15.14"/>
      <rect x="287.57" y="196.76" width="15.14" height="15.14"/>
      <rect x="302.7" y="196.76" width="15.14" height="15.14"/>
      <rect x="332.97" y="196.76" width="15.14" height="15.14"/>
      <rect x="348.11" y="196.76" width="15.14" height="15.14"/>
      <rect x="378.38" y="196.76" width="15.14" height="15.14"/>
      <rect x="408.65" y="196.76" width="15.14" height="15.14"/>
      <rect x="423.78" y="196.76" width="15.14" height="15.14"/>
      <rect x="438.92" y="196.76" width="15.14" height="15.14"/>
      <rect x="469.19" y="196.76" width="15.14" height="15.14"/>
      <rect x="514.59" y="196.76" width="15.14" height="15.14"/>
      <rect x="0.0" y="211.89" width="15.14" height="15.14"/>
      <rect x="15.14" y="211.89" width="15.14" height="15.14"/>
      <rect x="75.68" y="211.89" width="15.14" height="15.14"/>
      <rect x="90.81" y="211.89" width="15.14" height="15.14"/>
      <rect x="105.95" y="211.89" width="15.14" height="15.14"/>
      <rect x="121.08" y="211.89" width="15.14" height="15.14"/>
      <rect x="136.22" y="211.89" width="15.14" height="15.14"/>
      <rect x="151.35" y="211.89" width="15.14" height="15.14"/>
      <rect x="166.49" y="211.89" width="15.14" height="15.14"/>
      <rect x="211.89" y="211.89" width="15.14" height="15.14"/>
      <rect x="242.16" y="211.89" width="15.14" height="15.14"/>
      <rect x="302.7" y="211.89" width="15.14" height="15.14"/>
      <rect x="363.24" y="211.89" width="15.14" height="15.14"/>
      <rect x="378.38" y="211.89" width="15.14" height="15.14"/>
      <rect x="393.51" y="211.89" width="15.14" height="15.14"/>
      <rect x="408.65" y="211.89" width="15.14" height="15.14"/>
      <rect x="438.92" y="211.89" width="15.14" height="15.14"/>
      <rect x="469.19" y="211.89" width="15.14" height="15.14"/>
      <rect x="499.46" y="211.89" width="15.14" height="15.14"/>
      <rect x="529.73" y="211.89" width="15.14" height="15.14"/>
      <rect x="544.86" y="211.89" width="15.14" height="15.14"/>
      <rect x="0.0" y="227.03" width="15.14" height="15.14"/>
      <rect x="30.27" y="227.03" width="15.14" height="15.14"/>
      <rect x="136.22" y="227.03" width="15.14" height="15.14"/>
      <rect x="151.35" y="227.03" width="15.14" height="15.14"/>
      <rect x="181.62" y="227.03" width="15.14" height="15.14"/>
      <rect x="196.76" y="227.03" width="15.14" height="15.14"/>
      <rect x="287.57" y="227.03" width="15.14" height="15.14"/>
      <rect x="332.97" y="227.03" width="15.14" height="15.14"/>
      <rect x="363.24" y="227.03" width="15.14" height="15.14"/>
      <rect x="423.78" y="227.03" width="15.14" height="15.14"/>
      <rect x="454.05" y="227.03" width="15.14" height="15.14"/>
      <rect x="469.19" y="227.03" width="15.14" height="15.14"/>
      <rect x="499.46" y="227.03" width="15.14" height="15.14"/>
      <rect x="514.59" y="227.03" width="15.14" height="15.14"/>
      <rect x="544.86" y="227.03" width="15.14" height="15.14"/>
      <rect x="45.41" y="242.16" width="15.14" height="15.14"/>
      <rect x="75.68" y="242.16" width="15.14" height="15.14"/>
      <rect x="90.81" y="242.16" width="15.14" height="15.14"/>
      <rect x="121.08" y="242.16" width="15.14" height="15.14"/>
      <rect x="196.76" y="242.16" width="15.14" height="15.14"/>
      <rect x="272.43" y="242.16" width="15.14" height="15.14"/>
      <rect x="287.57" y="242.16" width="15.14" height="15.14"/>
      <rect x="302.7" y="242.16" width="15.14" height="15.14"/>
      <rect x="348.11" y="242.16" width="15.14" height="15.14"/>
      <rect x="378.38" y="242.16" width="15.14" height="15.14"/>
      <rect x="393.51" y="242.16" width="15.14" height="15.14"/>
      <rect x="408.65" y="242.16" width="15.14" height="15.14"/>
      <rect x="438.92" y="242.16" width="15.14" height="15.14"/>
      <rect x="454.05" y="242.16" width="15.14" height="15.14"/>
      <rect x="484.32" y="242.16" width="15.14" height="15.14"/>
      <rect x="514.59" y="242.16" width="15.14" height="15.14"/>
      <rect x="529.73" y="242.16" width="15.14" height="15.14"/>
      <rect x="0.0" y="257.3" width="15.14" height="15.14"/>
      <rect x="15.14" y="257.3" width="15.14" height="15.14"/>
      <rect x="60.54" y="257.3" width="15.14" height="15.14"/>
      <rect x="75.68" y="257.3" width="15.14" height="15.14"/>
      <rect x="105.95" y="257.3" width="15.14" height="15.14"/>
      <rect x="136.22" y="257.3" width="15.14" height="15.14"/>
      <rect x="166.49" y="257.3" width="15.14" height="15.14"/>
      <rect x="181.62" y="257.3" width="15.14" height="15.14"/>
      <rect x="196.76" y="257.3" width="15.14" height="15.14"/>
      <rect x="227.03" y="257.3" width="15.14" height="15.14"/>
      <rect x="242.16" y="257.3" width="15.14" height="15.14"/>
      <rect x="257.3" y="257.3" width="15.14" height="15.14"/>
      <rect x="272.43" y="257.3" width="15.14" height="15.14"/>
      <rect x="287.57" y="257.3" width="15.14" height="15.14"/>
      <rect x="332.97" y="257.3" width="15.14" height="15.14"/>
      <rect x="348.11" y="257.3" width="15.14" height="15.14"/>
      <rect x="363.24" y="257.3" width="15.14" height="15.14"/>
      <rect x="408.65" y="257.3" width="15.14" height="15.14"/>
      <rect x="423.78" y="257.3" width="15.14" height="15.14"/>
      <rect x="438.92" y="257.3" width="15.14" height="15.14"/>
      <rect x="469.19" y="257.3" width="15.14" height="15.14"/>
      <rect x="499.46" y="257.3" width="15.14" height="15.14"/>
      <rect x="15.14" y="272.43" width="15.14" height="15.14"/>
      <rect x="30.27" y="272.43" width="15.14" height="15.14"/>
      <rect x="45.41" y="272.43" width="15.14" height="15.14"/>
      <rect x="60.54" y="272.43" width="15.14" height="15.14"/>
      <rect x="90.81" y="272.43" width="15.14" height="15.14"/>
      <rect x="136.22" y="272.43" width="15.14" height="15.14"/>
      <rect x="181.62" y="272.43" width="15.14" height="15.14"/>
      <rect x="211.89" y="272.43" width="15.14" height="15.14"/>
      <rect x="257.3" y="272.43" width="15.14" height="15.14"/>
      <rect x="287.57" y="272.43" width="15.14" height="15.14"/>
      <rect x="317.84" y="272.43" width="15.14" height="15.14"/>
      <rect x="393.51" y="272.43" width="15.14" height="15.14"/>
      <rect x="408.65" y="272.43" width="15.14" height="15.14"/>
      <rect x="423.78" y="272.43" width="15.14" height="15.14"/>
      <rect x="454.05" y="272.43" width="15.14" height="15.14"/>
      <rect x="469.19" y="272.43" width="15.14" height="15.14"/>
      <rect x="484.32" y="272.43" width="15.14" height="15.14"/>
      <rect x="514.59" y="272.43" width="15.14" height="15.14"/>
      <rect x="544.86" y="272.43" width="15.14" height="15.14"/>
      <rect x="0.0" y="287.57" width="15.14" height="15.14"/>
      <rect x="121.08" y="287.57" width="15.14" height="15.14"/>
      <rect x="136.22" y="287.57" width="15.14" height="15.14"/>
      <rect x="166.49" y="287.57" width="15.14" height="15.14"/>
      <rect x="196.76" y="287.57" width="15.14" height="15.14"/>
      <rect x="211.89" y="287.57" width="15.14" height="15.14"/>
      <rect x="227.03" y="287.57" width="15.14" height="15.14"/>
      <rect x="257.3" y="287.57" width="15.14" height="15.14"/>
      <rect x="317.84" y="287.57" width="15.14" height="15.14"/>
      <rect x="348.11" y="287.57" width="15.14" height="15.14"/>
      <rect x="363.24" y="287.57" width="15.14" height="15.14"/>
      <rect x="408.65" y="287.57" width="15.14" height="15.14"/>
      <rect x="423.78" y="287.57" width="15.14" height="15.14"/>
      <rect x="438.92" y="287.57" width="15.14" height="15.14"/>
      <rect x="454.05" y="287.57" width="15.14" height="15.14"/>
      <rect x="469.19" y="287.57" width="15.14" height="15.14"/>
      <rect x="499.46" y="287.57" width="15.14" height="15.14"/>
      <rect x="529.73" y="287.57" width="15.14" height="15.14"/>
      <rect x="30.27" y="302.7" width="15.14" height="15.14"/>
      <rect x="45.41" y="302.7" width="15.14" height="15.14"/>
      <rect x="90.81" y="302.7" width="15.14" height="15.14"/>
      <rect x="105.95" y="302.7" width="15.14" height="15.14"/>
      <rect x="227.03" y="302.7" width="15.14" height="15.14"/>
      <rect x="242.16" y="302.7" width="15.14" height="15.14"/>
      <rect x="257.3" y="302.7" width="15.14" height="15.14"/>
      <rect x="287.57" y="302.7" width="15.14" height="15.14"/>
      <rect x="302.7" y="302.7" width="15.14" height="15.14"/>
      <rect x="317.84" y="302.7" width="15.14" height="15.14"/>
      <rect x="348.11" y="302.7" width="15.14" height="15.14"/>
      <rect x="363.24" y="302.7" width="15.14" height="15.14"/>
      <rect x="378.38" y="302.7" width="15.14" height="15.14"/>
      <rect x="393.51" y="302.7" width="15.14" height="15.14"/>
      <rect x="438.92" y="302.7" width="15.14" height="15.14"/>
      <rect x="454.05" y="302.7" width="15.14" height="15.14"/>
      <rect x="469.19" y="302.7" width="15.14" height="15.14"/>
      <rect x="484.32" y="302.7" width="15.14" height="15.14"/>
      <rect x="499.46" y="302.7" width="15.14" height="15.14"/>
      <rect x="514.59" y="302.7" width="15.14" height="15.14"/>
      <rect x="529.73" y="302.7" width="15.14" height="15.14"/>
      <rect x="544.86" y="302.7" width="15.14" height="15.14"/>
      <rect x="15.14" y="317.84" width="15.14" height="15.14"/>
      <rect x="30.27" y="317.84" width="15.14" height="15.14"/>
      <rect x="45.41" y="317.84" width="15.14" height="15.14"/>
      <rect x="60.54" y="317.84" width="15.14" height="15.14"/>
      <rect x="75.68" y="317.84" width="15.14" height="15.14"/>
      <rect x="136.22" y="317.84" width="15.14" height="15.14"/>
      <rect x="151.35" y="317.84" width="15.14" height="15.14"/>
      <rect x="211.89" y="317.84" width="15.14" height="15.14"/>
      <rect x="227.03" y="317.84" width="15.14" height="15.14"/>
      <rect x="257.3" y="317.84" width="15.14" height="15.14"/>
      <rect x="272.43" y="317.84" width="15.14" height="15.14"/>
      <rect x="302.7" y="317.84" width="15.14" height="15.14"/>
      <rect x="317.84" y="317.84" width="15.14" height="15.14"/>
      <rect x="378.38" y="317.84" width="15.14" height="15.14"/>
      <rect x="408.65" y="317.84" width="15.14" height="15.14"/>
      <rect x="423.78" y="317.84" width="15.14" height="15.14"/>
      <rect x="438.92" y="317.84" width="15.14" height="15.14"/>
      <rect x="469.19" y="317.84" width="15.14" height="15.14"/>
      <rect x="484.32" y="317.84" width="15.14" height="15.14"/>
      <rect x="0.0" y="332.97" width="15.14" height="15.14"/>
      <rect x="15.14" y="332.97" width="15.14" height="15.14"/>
      <rect x="30.27" y="332.97" width="15.14" height="15.14"/>
      <rect x="60.54" y="332.97" width="15.14" height="15.14"/>
      <rect x="90.81" y="332.97" width="15.14" height="15.14"/>
      <rect x="121.08" y="332.97" width="15.14" height="15.14"/>
      <rect x="151.35" y="332.97" width="15.14" height="15.14"/>
      <rect x="181.62" y="332.97" width="15.14" height="15.14"/>
      <rect x="211.89" y="332.97" width="15.14" height="15.14"/>
      <rect x="242.16" y="332.97" width="15.14" height="15.14"/>
      <rect x="287.57" y="332.97" width="15.14" height="15.14"/>
      <rect x="332.97" y="332.97" width="15.14" height="15.14"/>
      <rect x="348.11" y="332.97" width="15.14" height="15.14"/>
      <rect x="378.38" y="332.97" width="15.14" height="15.14"/>
      <rect x="393.51" y="332.97" width="15.14" height="15.14"/>
      <rect x="408.65" y="332.97" width="15.14" height="15.14"/>
      <rect x="454.05" y="332.97" width="15.14" height="15.14"/>
      <rect x="499.46" y="332.97" width="15.14" height="15.14"/>
      <rect x="529.73" y="332.97" width="15.14" height="15.14"/>
      <rect x="544.86" y="332.97" width="15.14" height="15.14"/>
      <rect x="0.0" y="348.11" width="15.14" height="15.14"/>
      <rect x="45.41" y="348.11" width="15.14" height="15.14"/>
      <rect x="75.68" y="348.11" width="15.14" height="15.14"/>
      <rect x="105.95" y="348.11" width="15.14" height="15.14"/>
      <rect x="181.62" y="348.11" width="15.14" height="15.14"/>
      <rect x="227.03" y="348.11" width="15.14" height="15.14"/>
      <rect x="242.16" y="348.11" width="15.14" height="15.14"/>
      <rect x="257.3" y="348.11" width="15.14" height="15.14"/>
      <rect x="272.43" y="348.11" width="15.14" height="15.14"/>
      <rect x="302.7" y="348.11" width="15.14" height="15.14"/>
      <rect x="332.97" y="348.11" width="15.14" height="15.14"/>
      <rect x="378.38" y="348.11" width="15.14" height="15.14"/>
      <rect x="408.65" y="348.11" width="15.14" height="15.14"/>
      <rect x="438.92" y="348.11" width="15.14" height="15.14"/>
      <rect x="469.19" y="348.11" width="15.14" height="15.14"/>
      <rect x="499.46" y="348.11" width="15.14" height="15.14"/>
      <rect x="529.73" y="348.11" width="15.14" height="15.14"/>
      <rect x="0.0" y="363.24" width="15.14" height="15.14"/>
      <rect x="15.14" y="363.24" width="15.14" height="15.14"/>
      <rect x="30.27" y="363.24" width="15.14" height="15.14"/>
      <rect x="45.41" y="363.24" width="15.14" height="15.14"/>
      <rect x="90.81" y="363.24" width="15.14" height="15.14"/>
      <rect x="105.95" y="363.24" width="15.14" height="15.14"/>
      <rect x="151.35" y="363.24" width="15.14" height="15.14"/>
      <rect x="166.49" y="363.24" width="15.14" height="15.14"/>
      <rect x="181.62" y="363.24" width="15.14" height="15.14"/>
      <rect x="211.89" y="363.24" width="15.14" height="15.14"/>
      <rect x="257.3" y="363.24" width="15.14" height="15.14"/>
      <rect x="272.43" y="363.24" width="15.14" height="15.14"/>
      <rect x="302.7" y="363.24" width="15.14" height="15.14"/>
      <rect x="317.84" y="363.24" width="15.14" height="15.14"/>
      <rect x="348.11" y="363.24" width="15.14" height="15.14"/>
      <rect x="363.24" y="363.24" width="15.14" height="15.14"/>
      <rect x="378.38" y="363.24" width="15.14" height="15.14"/>
      <rect x="423.78" y="363.24" width="15.14" height="15.14"/>
      <rect x="454.05" y="363.24" width="15.14" height="15.14"/>
      <rect x="469.19" y="363.24" width="15.14" height="15.14"/>
      <rect x="499.46" y="363.24" width="15.14" height="15.14"/>
      <rect x="529.73" y="363.24" width="15.14" height="15.14"/>
      <rect x="544.86" y="363.24" width="15.14" height="15.14"/>
      <rect x="0.0" y="378.38" width="15.14" height="15.14"/>
      <rect x="15.14" y="378.38" width="15.14" height="15.14"/>
      <rect x="30.27" y="378.38" width="15.14" height="15.14"/>
      <rect x="60.54" y="378.38" width="15.14" height="15.14"/>
      <rect x="75.68" y="378.38" width="15.14" height="15.14"/>
      <rect x="151.35" y="378.38" width="15.14" height="15.14"/>
      <rect x="211.89" y="378.38" width="15.14" height="15.14"/>
      <rect x="242.16" y="378.38" width="15.14" height="15.14"/>
      <rect x="272.43" y="378.38" width="15.14" height="15.14"/>
      <rect x="287.57" y="378.38" width="15.14" height="15.14"/>
      <rect x="302.7" y="378.38" width="15.14" height="15.14"/>
      <rect x="332.97" y="378.38" width="15.14" height="15.14"/>
      <rect x="438.92" y="378.38" width="15.14" height="15.14"/>
      <rect x="469.19" y="378.38" width="15.14" height="15.14"/>
      <rect x="499.46" y="378.38" width="15.14" height="15.14"/>
      <rect x="514.59" y="378.38" width="15.14" height="15.14"/>
      <rect x="0.0" y="393.51" width="15.14" height="15.14"/>
      <rect x="30.27" y="393.51" width="15.14" height="15.14"/>
      <rect x="45.41" y="393.51" width="15.14" height="15.14"/>
      <rect x="90.81" y="393.51" width="15.14" height="15.14"/>
      <rect x="136.22" y="393.51" width="15.14" height="15.14"/>
      <rect x="151.35" y="393.51" width="15.14" height="15.14"/>
      <rect x="166.49" y="393.51" width="15.14" height="15.14"/>
      <rect x="181.62" y="393.51" width="15.14" height="15.14"/>
      <rect x="196.76" y="393.51" width="15.14" height="15.14"/>
      <rect x="242.16" y="393.51" width="15.14" height="15.14"/>
      <rect x="272.43" y="393.51" width="15.14" height="15.14"/>
      <rect x="302.7" y="393.51" width="15.14" height="15.14"/>
      <rect x="348.11" y="393.51" width="15.14" height="15.14"/>
      <rect x="363.24" y="393.51" width="15.14" height="15.14"/>
      <rect x="378.38" y="393.51" width="15.14" height="15.14"/>
      <rect x="408.65" y="393.51" width="15.14" height="15.14"/>
      <rect x="454.05" y="393.51" width="15.14" height="15.14"/>
      <rect x="499.46" y="393.51" width="15.14" height="15.14"/>
      <rect x="514.59" y="393.51" width="15.14" height="15.14"/>
      <rect x="529.73" y="393.51" width="15.14" height="15.14"/>
      <rect x="544.86" y="393.51" width="15.14" height="15.14"/>
      <rect x="0.0" y="408.65" width="15.14" height="15.14"/>
      <rect x="45.41" y="408.65" width="15.14" height="15.14"/>
      <rect x="60.54" y="408.65" width="15.14" height="15.14"/>
      <rect x="75.68" y="408.65" width="15.14" height="15.14"/>
      <rect x="105.95" y="408.65" width="15.14" height="15.14"/>
      <rect x="121.08" y="408.65" width="15.14" height="15.14"/>
      <rect x="196.76" y="408.65" width="15.14" height="15.14"/>
      <rect x="227.03" y="408.65" width="15.14" height="15.14"/>
      <rect x="242.16" y="408.65" width="15.14" height="15.14"/>
      <rect x="257.3" y="408.65" width="15.14" height="15.14"/>
      <rect x="287.57" y="408.65" width="15.14" height="15.14"/>
      <rect x="302.7" y="408.65" width="15.14" height="15.14"/>
      <rect x="348.11" y="408.65" width="15.14" height="15.14"/>
      <rect x="438.92" y="408.65" width="15.14" height="15.14"/>
      <rect x="469.19" y="408.65" width="15.14" height="15.14"/>
      <rect x="484.32" y="408.65" width="15.14" height="15.14"/>
      <rect x="499.46" y="408.65" width="15.14" height="15.14"/>
      <rect x="514.59" y="408.65" width="15.14" height="15.14"/>
      <rect x="529.73" y="408.65" width="15.14" height="15.14"/>
      <rect x="0.0" y="423.78" width="15.14" height="15.14"/>
      <rect x="30.27" y="423.78" width="15.14" height="15.14"/>
      <rect x="45.41" y="423.78" width="15.14" height="15.14"/>
      <rect x="90.81" y="423.78" width="15.14" height="15.14"/>
      <rect x="151.35" y="423.78" width="15.14" height="15.14"/>
      <rect x="166.49" y="423.78" width="15.14" height="15.14"/>
      <rect x="211.89" y="423.78" width="15.14" height="15.14"/>
      <rect x="287.57" y="423.78" width="15.14" height="15.14"/>
      <rect x="302.7" y="423.78" width="15.14" height="15.14"/>
      <rect x="317.84" y="423.78" width="15.14" height="15.14"/>
      <rect x="348.11" y="423.78" width="15.14" height="15.14"/>
      <rect x="363.24" y="423.78" width="15.14" height="15.14"/>
      <rect x="378.38" y="423.78" width="15.14" height="15.14"/>
      <rect x="393.51" y="423.78" width="15.14" height="15.14"/>
      <rect x="408.65" y="423.78" width="15.14" height="15.14"/>
      <rect x="423.78" y="423.78" width="15.14" height="15.14"/>
      <rect x="438.92" y="423.78" width="15.14" height="15.14"/>
      <rect x="454.05" y="423.78" width="15.14" height="15.14"/>
      <rect x="469.19" y="423.78" width="15.14" height="15.14"/>
      <rect x="484.32" y="423.78" width="15.14" height="15.14"/>
      <rect x="514.59" y="423.78" width="15.14" height="15.14"/>
      <rect x="529.73" y="423.78" width="15.14" height="15.14"/>
      <rect x="121.08" y="438.92" width="15.14" height="15.14"/>
      <rect x="136.22" y="438.92" width="15.14" height="15.14"/>
      <rect x="181.62" y="438.92" width="15.14" height="15.14"/>
      <rect x="211.89" y="438.92" width="15.14" height="15.14"/>
      <rect x="227.03" y="438.92" width="15.14" height="15.14"/>
      <rect x="242.16" y="438.92" width="15.14" height="15.14"/>
      <rect x="272.43" y="438.92" width="15.14" height="15.14"/>
      <rect x="332.97" y="438.92" width="15.14" height="15.14"/>
      <rect x="348.11" y="438.92" width="15.14" height="15.14"/>
      <rect x="378.38" y="438.92" width="15.14" height="15.14"/>
      <rect x="408.65" y="438.92" width="15.14" height="15.14"/>
      <rect x="423.78" y="438.92" width="15.14" height="15.14"/>
      <rect x="484.32" y="438.92" width="15.14" height="15.14"/>
      <rect x="499.46" y="438.92" width="15.14" height="15.14"/>
      <rect x="0.0" y="454.05" width="15.14" height="15.14"/>
      <rect x="15.14" y="454.05" width="15.14" height="15.14"/>
      <rect x="30.27" y="454.05" width="15.14" height="15.14"/>
      <rect x="45.41" y="454.05" width="15.14" height="15.14"/>
      <rect x="60.54" y="454.05" width="15.14" height="15.14"/>
      <rect x="75.68" y="454.05" width="15.14" height="15.14"/>
      <rect x="90.81" y="454.05" width="15.14" height="15.14"/>
      <rect x="151.35" y="454.05" width="15.14" height="15.14"/>
      <rect x="166.49" y="454.05" width="15.14" height="15.14"/>
      <rect x="181.62" y="454.05" width="15.14" height="15.14"/>
      <rect x="257.3" y="454.05" width="15.14" height="15.14"/>
      <rect x="272.43" y="454.05" width="15.14" height="15.14"/>
      <rect x="287.57" y="454.05" width="15.14" height="15.14"/>
      <rect x="317.84" y="454.05" width="15.14" height="15.14"/>
      <rect x="348.11" y="454.05" width="15.14" height="15.14"/>
      <rect x="378.38" y="454.05" width="15.14" height="15.14"/>
      <rect x="423.78" y="454.05" width="15.14" height="15.14"/>
      <rect x="454.05" y="454.05" width="15.14" height="15.14"/>
      <rect x="484.32" y="454.05" width="15.14" height="15.14"/>
      <rect x="499.46" y="454.05" width="15.14" height="15.14"/>
      <rect x="514.59" y="454.05" width="15.14" height="15.14"/>
      <rect x="544.86" y="454.05" width="15.14" height="15.14"/>
      <rect x="0.0" y="469.19" width="15.14" height="15.14"/>
      <rect x="90.81" y="469.19" width="15.14" height="15.14"/>
      <rect x="121.08" y="469.19" width="15.14" height="15.14"/>
      <rect x="151.35" y="469.19" width="15.14" height="15.14"/>
      <rect x="166.49" y="469.19" width="15.14" height="15.14"/>
      <rect x="181.62" y="469.19" width="15.14" height="15.14"/>
      <rect x="196.76" y="469.19" width="15.14" height="15.14"/>
      <rect x="211.89" y="469.19" width="15.14" height="15.14"/>
      <rect x="227.03" y="469.19" width="15.14" height="15.14"/>
      <rect x="257.3" y="469.19" width="15.14" height="15.14"/>
      <rect x="287.57" y="469.19" width="15.14" height="15.14"/>
      <rect x="332.97" y="469.19" width="15.14" height="15.14"/>
      <rect x="348.11" y="469.19" width="15.14" height="15.14"/>
      <rect x="363.24" y="469.19" width="15.14" height="15.14"/>
      <rect x="393.51" y="469.19" width="15.14" height="15.14"/>
      <rect x="408.65" y="469.19" width="15.14" height="15.14"/>
      <rect x="423.78" y="469.19" width="15.14" height="15.14"/>
      <rect x="484.32" y="469.19" width="15.14" height="15.14"/>
      <rect x="499.46" y="469.19" width="15.14" height="15.14"/>
      <rect x="529.73" y="469.19" width="15.14" height="15.14"/>
      <rect x="544.86" y="469.19" width="15.14" height="15.14"/>
      <rect x="0.0" y="484.32" width="15.14" height="15.14"/>
      <rect x="30.27" y="484.32" width="15.14" height="15.14"/>
      <rect x="45.41" y="484.32" width="15.14" height="15.14"/>
      <rect x="60.54" y="484.32" width="15.14" height="15.14"/>
      <rect x="90.81" y="484.32" width="15.14" height="15.14"/>
      <rect x="181.62" y="484.32" width="15.14" height="15.14"/>
      <rect x="211.89" y="484.32" width="15.14" height="15.14"/>
      <rect x="242.16" y="484.32" width="15.14" height="15.14"/>
      <rect x="287.57" y="484.32" width="15.14" height="15.14"/>
      <rect x="302.7" y="484.32" width="15.14" height="15.14"/>
      <rect x="378.38" y="484.32" width="15.14" height="15.14"/>
      <rect x="408.65" y="484.32" width="15.14" height="15.14"/>
      <rect x="423.78" y="484.32" width="15.14" height="15.14"/>
      <rect x="438.92" y="484.32" width="15.14" height="15.14"/>
      <rect x="454.05" y="484.32" width="15.14" height="15.14"/>
      <rect x="469.19" y="484.32" width="15.14" height="15.14"/>
      <rect x="484.32" y="484.32" width="15.14" height="15.14"/>
      <rect x="514.59" y="484.32" width="15.14" height="15.14"/>
      <rect x="544.86" y="484.32" width="15.14" height="15.14"/>
      <rect x="0.0" y="499.46" width="15.14" height="15.14"/>
      <rect x="30.27" y="499.46" width="15.14" height="15.14"/>
      <rect x="45.41" y="499.46" width="15.14" height="15.14"/>
      <rect x="60.54" y="499.46" width="15.14" height="15.14"/>
      <rect x="90.81" y="499.46" width="15.14" height="15.14"/>
      <rect x="136.22" y="499.46" width="15.14" height="15.14"/>
      <rect x="151.35" y="499.46" width="15.14" height="15.14"/>
      <rect x="196.76" y="499.46" width="15.14" height="15.14"/>
      <rect x="211.89" y="499.46" width="15.14" height="15.14"/>
      <rect x="227.03" y="499.46" width="15.14" height="15.14"/>
      <rect x="287.57" y="499.46" width="15.14" height="15.14"/>
      <rect x="363.24" y="499.46" width="15.14" height="15.14"/>
      <rect x="393.51" y="499.46" width="15.14" height="15.14"/>
      <rect x="423.78" y="499.46" width="15.14" height="15.14"/>
      <rect x="454.05" y="499.46" width="15.14" height="15.14"/>
      <rect x="499.46" y="499.46" width="15.14" height="15.14"/>
      <rect x="0.0" y="514.59" width="15.14" height="15.14"/>
      <rect x="30.27" y="514.59" width="15.14" height="15.14"/>
      <rect x="45.41" y="514.59" width="15.14" height="15.14"/>
      <rect x="60.54" y="514.59" width="15.14" height="15.14"/>
      <rect x="90.81" y="514.59" width="15.14" height="15.14"/>
      <rect x="136.22" y="514.59" width="15.14" height="15.14"/>
      <rect x="166.49" y="514.59" width="15.14" height="15.14"/>
      <rect x="181.62" y="514.59" width="15.14" height="15.14"/>
      <rect x="196.76" y="514.59" width="15.14" height="15.14"/>
      <rect x="257.3" y="514.59" width="15.14" height="15.14"/>
      <rect x="272.43" y="514.59" width="15.14" height="15.14"/>
      <rect x="302.7" y="514.59" width="15.14" height="15.14"/>
      <rect x="317.84" y="514.59" width="15.14" height="15.14"/>
      <rect x="332.97" y="514.59" width="15.14" height="15.14"/>
      <rect x="393.51" y="514.59" width="15.14" height="15.14"/>
      <rect x="408.65" y="514.59" width="15.14" height="15.14"/>
      <rect x="423.78" y="514.59" width="15.14" height="15.14"/>
      <rect x="438.92" y="514.59" width="15.14" height="15.14"/>
      <rect x="469.19" y="514.59" width="15.14" height="15.14"/>
      <rect x="499.46" y="514.59" width="15.14" height="15.14"/>
      <rect x="514.59" y="514.59" width="15.14" height="15.14"/>
      <rect x="544.86" y="514.59" width="15.14" height="15.14"/>
      <rect x="0.0" y="529.73" width="15.14" height="15.14"/>
      <rect x="90.81" y="529.73" width="15.14" height="15.14"/>
      <rect x="181.62" y="529.73" width="15.14" height="15.14"/>
      <rect x="196.76" y="529.73" width="15.14" height="15.14"/>
      <rect x="242.16" y="529.73" width="15.14" height="15.14"/>
      <rect x="257.3" y="529.73" width="15.14" height="15.14"/>
      <rect x="272.43" y="529.73" width="15.14" height="15.14"/>
      <rect x="363.24" y="529.73" width="15.14" height="15.14"/>
      <rect x="423.78" y="529.73" width="15.14" height="15.14"/>
      <rect x="469.19" y="529.73" width="15.14" height="15.14"/>
      <rect x="499.46" y="529.73" width="15.14" height="15.14"/>
      <rect x="544.86" y="529.73" width="15.14" height="15.14"/>
      <rect x="0.0" y="544.86" width="15.14" height="15.14"/>
      <rect x="15.14" y="544.86" width="15.14" height="15.14"/>
      <rect x="30.27" y="544.86" width="15.14" height="15.14"/>
      <rect x="45.41" y="544.86" width="15.14" height="15.14"/>
      <rect x="60.54" y="544.86" width="15.14" height="15.14"/>
      <rect x="75.68" y="544.86" width="15.14" height="15.14"/>
      <rect x="90.81" y="544.86" width="15.14" height="15.14"/>
      <rect x="211.89" y="544.86" width="15.14" height="15.14"/>
      <rect x="227.03" y="544.86" width="15.14" height="15.14"/>
      <rect x="242.16" y="544.86" width="15.14" height="15.14"/>
      <rect x="272.43" y="544.86" width="15.14" height="15.14"/>
      <rect x="302.7" y="544.86" width="15.14" height="15.14"/>
      <rect x="332.97" y="544.86" width="15.14" height="15.14"/>
      <rect x="348.11" y="544.86" width="15.14" height="15.14"/>
      <rect x="408.65" y="544.86" width="15.14" height="15.14"/>
      <rect x="423.78" y="544.86" width="15.14" height="15.14"/>
      <rect x="454.05" y="544.86" width="15.14" height="15.14"/>
      <rect x="469.19" y="544.86" width="15.14" height="15.14"/>
      <rect x="484.32" y="544.86" width="15.14" height="15.14"/>
      <rect x="499.46" y="544.86" width="15.14" height="15.14"/>
      <rect x="544.86" y="544.86" width="15.14" height="15.14"/>
    </g>
  </g>

  <text x="3530" y="2420" text-anchor="middle" class="small">examexperts.org (281) 541-5928</text>
</svg>
